HIERARCHY
ROOT Hips
{
	OFFSET -0.001795 -0.223333 0.028219
	CHANNELS 6 Xposition Yposition Zposition Zrotation Yrotation Xrotation 
	JOINT LeftUpLeg
	{
		OFFSET 0.069520 -0.091406 -0.006815
		CHANNELS 3 Zrotation Yrotation Xrotation
		JOINT LeftLeg
		{
			OFFSET 0.034277 -0.375199 -0.004496
			CHANNELS 3 Zrotation Yrotation Xrotation
			JOINT LeftFoot
			{
				OFFSET -0.013596 -0.397961 -0.043693
				CHANNELS 3 Zrotation Yrotation Xrotation
				JOINT LeftToe
				{
					OFFSET 0.026358 -0.055791 0.119288
					CHANNELS 3 Zrotation Yrotation Xrotation
					End Site
					{
						OFFSET 0.000000 0.000000 0.000000
					}
				}
			}
		}
	}
	JOINT RightUpLeg
	{
		OFFSET -0.067670 -0.090522 -0.004320
		CHANNELS 3 Zrotation Yrotation Xrotation
		JOINT RightLeg
		{
			OFFSET -0.038290 -0.382569 -0.008850
			CHANNELS 3 Zrotation Yrotation Xrotation
			JOINT RightFoot
			{
				OFFSET 0.015774 -0.398415 -0.042312
				CHANNELS 3 Zrotation Yrotation Xrotation
				JOINT RightToe
				{
					OFFSET -0.025372 -0.048144 0.123348
					CHANNELS 3 Zrotation Yrotation Xrotation
					End Site
					{
						OFFSET 0.000000 0.000000 0.000000
					}
				}
			}
		}
	}
	JOINT Spine
	{
		OFFSET -0.002533 0.108963 -0.026696
		CHANNELS 3 Zrotation Yrotation Xrotation
		JOINT Spine1
		{
			OFFSET 0.005487 0.135180 0.001092
			CHANNELS 3 Zrotation Yrotation Xrotation
			JOINT Spine2
			{
				OFFSET 0.001457 0.052922 0.025425
				CHANNELS 3 Zrotation Yrotation Xrotation
				JOINT Neck
				{
					OFFSET -0.002778 0.213870 -0.042857
					CHANNELS 3 Zrotation Yrotation Xrotation
					JOINT Head
					{
						OFFSET 0.005152 0.064970 0.051349
						CHANNELS 3 Zrotation Yrotation Xrotation
						End Site
						{
							OFFSET 0.000000 0.000000 0.000000
						}
					}
				}
				JOINT LeftShoulder
				{
					OFFSET 0.078845 0.121749 -0.034090
					CHANNELS 3 Zrotation Yrotation Xrotation
					JOINT LeftArm
					{
						OFFSET 0.090977 0.030469 -0.008868
						CHANNELS 3 Zrotation Yrotation Xrotation
						JOINT LeftForeArm
						{
							OFFSET 0.259612 -0.012772 -0.027456
							CHANNELS 3 Zrotation Yrotation Xrotation
							JOINT LeftHand
							{
								OFFSET 0.249234 0.008986 -0.001171
								CHANNELS 3 Zrotation Yrotation Xrotation
								End Site
								{
									OFFSET 0.000000 0.000000 0.000000
								}
							}
						}
					}
				}
				JOINT RightShoulder
				{
					OFFSET -0.081759 0.118833 -0.038615
					CHANNELS 3 Zrotation Yrotation Xrotation
					JOINT RightArm
					{
						OFFSET -0.096012 0.032551 -0.009143
						CHANNELS 3 Zrotation Yrotation Xrotation
						JOINT RightForeArm
						{
							OFFSET -0.253742 -0.013329 -0.021401
							CHANNELS 3 Zrotation Yrotation Xrotation
							JOINT RightHand
							{
								OFFSET -0.255298 0.007772 -0.005559
								CHANNELS 3 Zrotation Yrotation Xrotation
								End Site
								{
									OFFSET 0.000000 0.000000 0.000000
								}
							}
						}
					}
				}
			}
		}
	}
}
MOTION
Frames: 10
Frame Time: 0.050000
0.005086 0.950806 -0.037901 -1.020177 -8.343312 10.996106 4.497197 -0.653946 -12.594977 -3.515509 0.459170 3.725157 5.158748 11.726635 7.845324 0.000000 0.000000 0.000000 -2.739736 1.586172 -16.664047 2.338029 -0.006548 6.873558 -1.733235 -8.915952 10.434534 0.000000 0.000000 0.000000 -4.400652 0.456226 19.576102 4.967318 -1.479997 -12.170077 -0.405158 -0.796718 22.029724 -4.025704 3.024368 -25.089486 0.000000 0.000000 0.000000 -13.729193 -28.701168 14.682174 -7.789008 -49.987817 -1.089612 71.017613 -30.621732 -18.549654 0.000000 0.000000 0.000000 6.891440 37.186273 14.643885 21.148611 37.974578 2.089663 -71.227344 36.708880 -23.973770 0.000000 0.000000 0.000000 
0.002775 0.954454 -0.027207 -0.860444 -8.159893 9.583322 4.225063 -0.573503 -10.050061 -2.768592 0.338234 2.650209 4.676995 11.060543 9.530169 0.000000 0.000000 0.000000 -2.144258 1.315397 -13.647720 1.385922 0.072681 5.498536 -1.449715 -8.687434 11.470436 0.000000 0.000000 0.000000 -3.688836 0.200780 15.721532 4.732728 -1.273350 -14.498470 -0.933329 -1.449939 23.296508 -3.400078 2.568671 -25.969372 0.000000 0.000000 0.000000 -13.748294 -25.687795 13.235884 -9.265624 -48.912886 -0.612169 84.877179 -33.398220 -25.948738 0.000000 0.000000 0.000000 8.073863 34.126276 13.379699 21.434487 36.223840 1.855815 -87.784355 39.753395 -35.269093 0.000000 0.000000 0.000000 
0.000830 0.957051 -0.014832 -0.452379 -7.207467 8.002273 3.846449 -0.458475 -7.042612 -2.349980 0.278974 1.123047 4.231151 10.442038 9.934976 0.000000 0.000000 0.000000 -1.825571 1.023944 -10.659708 0.936890 0.078077 4.340407 -1.759997 -8.970708 10.991955 0.000000 0.000000 0.000000 -3.780815 0.132826 11.395811 5.409151 -1.351032 -16.281816 -1.768660 -1.701129 24.068775 -2.829974 2.274418 -25.275665 0.000000 0.000000 0.000000 -12.925912 -23.180729 11.664691 -10.106720 -48.809237 -0.332167 97.732301 -33.837077 -32.669816 0.000000 0.000000 0.000000 7.222914 29.825521 11.321875 19.471937 37.147147 1.417187 -104.458417 36.332642 -42.280426 0.000000 0.000000 0.000000 
-0.000049 0.960000 -0.003586 -0.327562 -7.355092 6.792349 3.409939 -0.307113 -4.186451 -1.762381 0.228577 -0.742031 3.218872 8.890194 11.127970 0.000000 0.000000 0.000000 -1.335907 0.822500 -8.452908 0.059405 0.137573 3.246095 -1.183421 -7.913110 11.051106 0.000000 0.000000 0.000000 -3.256493 0.047772 7.358047 5.113682 -1.164117 -17.942828 -1.828690 -1.438664 24.238810 -2.452804 2.057384 -24.463427 0.000000 0.000000 0.000000 -10.000095 -20.528117 9.653442 -12.023304 -50.201697 0.565662 106.959474 -31.069615 -34.511868 0.000000 0.000000 0.000000 4.400153 26.549075 9.495481 17.722588 39.092868 1.108932 -114.888603 29.470131 -40.920356 0.000000 0.000000 0.000000 
-0.000540 0.961414 0.004939 -0.128197 -6.396791 5.758330 3.530912 -0.216336 -2.733038 -1.576791 0.217048 -1.432011 3.088309 8.803622 11.243338 0.000000 0.000000 0.000000 -1.465120 0.623794 -6.404583 0.339905 0.073712 2.585615 -1.020799 -7.507125 11.167865 0.000000 0.000000 0.000000 -3.435806 0.066075 4.231451 5.392650 -1.123182 -19.331617 -1.653836 -1.866935 24.403191 -1.643829 1.586864 -24.073027 0.000000 0.000000 0.000000 -6.320174 -19.443065 8.319479 -10.768044 -52.302371 0.453892 109.622856 -26.203590 -30.008464 0.000000 0.000000 0.000000 0.111096 24.306426 8.077725 13.987860 41.446650 0.208555 -117.715751 19.842614 -29.036722 0.000000 0.000000 0.000000 
-0.000654 0.962971 0.010462 -0.080512 -5.818298 5.219741 3.440152 -0.179149 -2.131339 -1.054470 0.166993 -1.752134 2.184451 7.515833 12.037990 0.000000 0.000000 0.000000 -0.988673 0.509198 -5.170792 -0.448950 0.143597 2.174438 -1.004942 -7.514809 11.484915 0.000000 0.000000 0.000000 -3.075369 0.064168 1.709945 5.538009 -1.061322 -20.537422 -1.643382 -1.896339 24.390233 -1.851083 1.751864 -24.003788 0.000000 0.000000 0.000000 -2.920665 -18.562673 7.221944 -9.076755 -53.737299 0.045878 110.535504 -21.932013 -25.084153 0.000000 0.000000 0.000000 -4.466217 23.103085 7.129953 10.795614 43.477225 -0.705001 -120.314814 12.855227 -19.391177 0.000000 0.000000 0.000000 
-0.000816 0.963138 0.014171 -0.145489 -5.072592 4.884854 3.574123 -0.174529 -2.048764 -0.726969 0.114302 -1.088370 1.994487 7.296886 12.070552 0.000000 0.000000 0.000000 -0.851340 0.462134 -4.674988 -0.396788 0.136127 2.144183 -0.885185 -7.358485 11.982983 0.000000 0.000000 0.000000 -3.165398 0.084230 0.189441 5.716040 -1.017962 -21.506942 -1.062226 -2.429215 24.190022 -1.797782 1.697194 -23.914627 0.000000 0.000000 0.000000 -1.999213 -17.891736 6.783136 -4.808172 -54.249575 -1.596146 110.329305 -20.046872 -22.844773 0.000000 0.000000 0.000000 -6.497669 22.132275 6.624186 6.427621 44.965796 -2.135468 -120.639327 8.673315 -13.035975 0.000000 0.000000 0.000000 
-0.001107 0.962991 0.017359 0.026518 -4.206475 4.740646 3.595188 -0.165645 -1.829831 -0.631461 0.107210 -1.236610 1.328783 6.310840 12.098351 0.000000 0.000000 0.000000 -0.932089 0.402694 -4.033473 -0.294034 0.116356 1.977875 -1.195493 -7.617503 11.345235 0.000000 0.000000 0.000000 -3.064570 0.109685 -1.758503 5.724851 -0.932740 -22.412651 -1.251321 -2.636303 24.358898 -1.776456 1.742785 -24.438315 0.000000 0.000000 0.000000 -0.082486 -17.422824 6.223411 -4.862735 -54.250490 -1.520879 110.936390 -19.386562 -22.274332 0.000000 0.000000 0.000000 -8.607953 20.889740 6.064070 5.623656 45.751503 -2.433453 -122.600628 5.889465 -8.629285 0.000000 0.000000 0.000000 
-0.001484 0.962306 0.020528 0.093282 -3.552003 4.391616 3.716873 -0.126614 -1.165847 -0.438879 0.099488 -1.669755 0.937703 5.766995 12.168851 0.000000 0.000000 0.000000 -0.746553 0.331798 -3.293231 -0.809458 0.161988 1.704023 -1.285749 -7.618421 11.064476 0.000000 0.000000 0.000000 -3.028002 0.128404 -3.173748 5.559136 -0.881740 -22.466616 -1.095511 -3.030730 24.123680 -2.315720 2.034634 -23.479076 0.000000 0.000000 0.000000 0.057641 -16.530192 5.872786 -3.275349 -54.620983 -2.157248 110.579992 -19.455961 -22.410274 0.000000 0.000000 0.000000 -9.656209 20.661480 5.898563 3.352073 45.022026 -3.113675 -123.009290 5.582907 -8.441859 0.000000 0.000000 0.000000 
-0.001930 0.961263 0.023238 0.162706 -2.932795 4.038750 3.809679 -0.106525 -0.792514 -0.490314 0.108532 -1.811756 0.569490 5.066548 11.543199 0.000000 0.000000 0.000000 -0.917065 0.231971 -2.188639 -0.850711 0.147180 1.295460 -1.559450 -7.837691 10.328619 0.000000 0.000000 0.000000 -3.209752 0.140901 -4.361977 5.757610 -0.897623 -22.799936 -1.154129 -2.739397 23.974620 -2.162647 2.066788 -24.132885 0.000000 0.000000 0.000000 0.753783 -15.781565 5.466824 -3.729927 -55.708291 -2.058190 110.785593 -19.822284 -23.203531 0.000000 0.000000 0.000000 -10.370973 19.896567 5.599131 2.995511 44.381601 -3.065417 -123.390366 4.967954 -7.124102 0.000000 0.000000 0.000000 
